<?xml version="1.0" encoding="utf-8"?>
<!-- Generator: Adobe Illustrator 17.0.0, SVG Export Plug-In . SVG Version: 6.00 Build 0)  -->
<!DOCTYPE svg PUBLIC "-//W3C//DTD SVG 1.1//EN" "http://www.w3.org/Graphics/SVG/1.1/DTD/svg11.dtd">
<svg version="1.1" id="图层_1" xmlns="http://www.w3.org/2000/svg" xmlns:xlink="http://www.w3.org/1999/xlink" x="0px" y="0px"
	 width="49px" height="49px" viewBox="-0.5 -0.5 49 49" enable-background="new -0.5 -0.5 49 49" xml:space="preserve">
<path fill="#489045" d="M48,48H0l0,0l0,0V0h48l0,0l0,0V48z"/>
<path display="none" fill="#489045" d="M49.598,49.411h-48l0,0l0,0v-48h48l0,0l0,0V49.411z"/>
<path fill="#FFFFFF" d="M35.249,37.271C34.768,37.738,34.115,38,33.435,38h-18.87c-0.68,0-1.333-0.262-1.814-0.729
	S12,36.171,12,35.511V12.47c0.005-0.66,0.28-1.291,0.765-1.754c0.485-0.463,1.139-0.721,1.82-0.716h13.02
	c0.146,0.035,0.28,0.107,0.388,0.208l7.774,7.542c0.104,0.105,0.178,0.235,0.214,0.377v0.113c0.008,0.031,0.014,0.062,0.019,0.094
	v17.177C36,36.171,35.73,36.804,35.249,37.271z M28.246,12.81L28,17h5L28.246,12.81z M34,19h-7c-0.514-0.012-0.953-0.572-1-1
	c0.028-0.5,0-6,0-6H15c-0.472,0-1,0.542-1,1v22c0,0.458,0.528,1,1,1h18c0.69-0.03,1.094-0.608,1-1V19z M30.306,27.215h2.118v1.075
	h-2.118v2.451h-1.36v-6.203h3.653v1.074h-2.293V27.215z M26.925,29.855c-0.674,0.592-1.56,0.904-2.468,0.867h-2.216v-6.203h2.216
	c2.293,0.012,3.439,1.024,3.439,3.035C27.926,28.42,27.572,29.258,26.925,29.855z M25.953,26.121
	c-0.437-0.373-1.013-0.557-1.594-0.509h-0.738v4.054h0.797c0.572,0.041,1.134-0.166,1.535-0.566
	c0.397-0.413,0.607-0.963,0.583-1.527C26.566,27.03,26.354,26.501,25.953,26.121z M20.57,28.026
	c-0.512,0.392-1.156,0.587-1.807,0.546h-0.719v2.15h-1.361v-6.203h2.216c1.58,0,2.377,0.66,2.39,1.979
	C21.309,27.089,21.043,27.654,20.57,28.026z M18.666,25.556h-0.603v1.998h0.583c0.803,0,1.205-0.333,1.205-0.999
	S19.456,25.556,18.666,25.556z"/>
</svg>
