<?xml version="1.0" encoding="utf-8"?>
<!-- Generator: Adobe Illustrator 17.0.0, SVG Export Plug-In . SVG Version: 6.00 Build 0)  -->
<!DOCTYPE svg PUBLIC "-//W3C//DTD SVG 1.1//EN" "http://www.w3.org/Graphics/SVG/1.1/DTD/svg11.dtd">
<svg version="1.1" id="图层_1" xmlns="http://www.w3.org/2000/svg" xmlns:xlink="http://www.w3.org/1999/xlink" x="0px" y="0px"
	 width="49px" height="49px" viewBox="-0.5 -0.5 49 49" enable-background="new -0.5 -0.5 49 49" xml:space="preserve">
<path fill="#C86338" d="M0,0h48v48H0V0z"/>
<path fill="#FFFFFF" d="M33.337,38H14.663C12.092,38,10,35.906,10,33.331V14.668C10,12.094,12.092,10,14.663,10h18.674
	C35.908,10,38,12.094,38,14.668v18.663C38,35.906,35.908,38,33.337,38z M37.056,14.668c0-2.053-1.669-3.723-3.719-3.723H14.663
	c-2.051,0-3.719,1.67-3.719,3.723v18.663c0,2.054,1.668,3.724,3.719,3.724h18.674c2.05,0,3.719-1.67,3.719-3.724V14.668z
	 M31.194,28.02c-0.238,0.138-0.589,0.274-1.064,0.274c-0.944,0-2.361-0.449-3.543-1.137c-2.006,0.275-2.711,0.44-4.36,1.006
	c-0.113,0.038-0.598,0.305-0.829,0.867c-1.416,2.885-2.365,3.8-3.312,3.8c-0.235,0-0.887,0.008-1.061-0.548
	c-0.5-1.593,0.707-2.752,2.124-3.712c0.239-0.139,0.71-0.231,1.063-0.689c0.963-1.25,2.479-5.157,2.479-6.461
	c0-1.738-0.62-2.775-0.386-4.303c0.086-0.56,0.475-1.52,1.332-1.508c0.236,0.004,0.436,0.014,0.649,0.195
	c0.948,0.796,0.531,3.416,0.06,5.204v0.137c0.471,1.513,1.18,2.749,1.888,3.574c0.354,0.275,0.591,0.55,1.063,0.825
	c0.592,0,1.063-0.137,1.536-0.137c1.417,0,2.361,0.276,2.715,0.962c0.119,0.274,0.169,0.551,0.168,0.825
	C31.597,27.332,31.667,27.758,31.194,28.02z M17.992,31.367c0,0.935,1.301-0.611,1.496-1.643
	C19.488,29.724,17.992,30.433,17.992,31.367z M23.788,16.668c-0.047-0.055-0.193-0.224-0.287-0.137
	c-0.398,0.362-0.235,1.785,0,3.024c0.119-0.551,0.287-1.514,0.287-1.514C23.906,17.355,23.905,16.805,23.788,16.668z M23.52,22.658
	c-0.237,0.962-0.709,2.061-1.181,3.298c-0.238,0.551-0.472,0.964-0.71,1.513c0,0,3.189-1.1,4.135-1.238
	C25.526,26.095,23.992,23.895,23.52,22.658z M28.442,26.679l-0.234,0.033c0,0,1.759,0.735,2.313,0.495
	c0.077-0.033,0.22-0.169,0.205-0.305C30.595,26.782,30.08,26.442,28.442,26.679z"/>
</svg>
