<?xml version="1.0" encoding="utf-8"?>
<!-- Generator: Adobe Illustrator 17.0.0, SVG Export Plug-In . SVG Version: 6.00 Build 0)  -->
<!DOCTYPE svg PUBLIC "-//W3C//DTD SVG 1.1//EN" "http://www.w3.org/Graphics/SVG/1.1/DTD/svg11.dtd">
<svg version="1.1" id="图层_1" xmlns="http://www.w3.org/2000/svg" xmlns:xlink="http://www.w3.org/1999/xlink" x="0px" y="0px"
	 width="49px" height="49px" viewBox="-0.5 -0.5 49 49" enable-background="new -0.5 -0.5 49 49" xml:space="preserve">
<path fill="#2564A9" d="M0,0h48v48H0V0z"/>
<path fill="#FFFFFF" d="M17.048,34.577h2.716l3.192-12.768c0.336-1.596,0.727-3.052,1.036-4.648h0.14
	c0.336,1.596,0.672,3.052,1.008,4.648l3.276,12.768h2.743l4.312-20.496h-2.239l-2.241,11.396c-0.42,2.184-0.811,4.396-1.203,6.636
	h-0.141c-0.504-2.24-1.008-4.48-1.512-6.636l-2.94-11.396H23.04l-2.912,11.396c-0.504,2.184-1.008,4.396-1.484,6.636h-0.112
	c-0.42-2.24-0.84-4.452-1.26-6.636l-2.268-11.396h-2.38L17.048,34.577z"/>
</svg>
