<?xml version="1.0" encoding="utf-8"?>
<!-- Generator: Adobe Illustrator 17.0.0, SVG Export Plug-In . SVG Version: 6.00 Build 0)  -->
<!DOCTYPE svg PUBLIC "-//W3C//DTD SVG 1.1//EN" "http://www.w3.org/Graphics/SVG/1.1/DTD/svg11.dtd">
<svg version="1.1" id="图层_1" xmlns="http://www.w3.org/2000/svg" xmlns:xlink="http://www.w3.org/1999/xlink" x="0px" y="0px"
	 width="49px" height="49px" viewBox="-0.5 -0.5 49 49" enable-background="new -0.5 -0.5 49 49" xml:space="preserve">
<path fill="#C87838" d="M0,0h48v48H0V0z"/>
<path fill="#FFFFFF" d="M34.399,34H13.6H12v-1.667v-5.912V14h24v16.406v1.927V34H34.399z M35.2,14.833H12.8v10.754l5.7-5.937
	l7.988,8.32l3.587-3.736l5.125,5.338V14.833z M28.5,20.006c0-0.92,0.716-1.666,1.6-1.666c0.884,0,1.599,0.746,1.599,1.666
	c0,0.921-0.715,1.667-1.599,1.667C29.216,21.673,28.5,20.927,28.5,20.006z"/>
</svg>
