<?xml version="1.0" encoding="utf-8"?>
<!-- Generator: Adobe Illustrator 17.0.0, SVG Export Plug-In . SVG Version: 6.00 Build 0)  -->
<!DOCTYPE svg PUBLIC "-//W3C//DTD SVG 1.1//EN" "http://www.w3.org/Graphics/SVG/1.1/DTD/svg11.dtd">
<svg version="1.1" id="图层_1" xmlns="http://www.w3.org/2000/svg" xmlns:xlink="http://www.w3.org/1999/xlink" x="0px" y="0px"
	 width="49px" height="49px" viewBox="-0.5 -0.5 49 49" enable-background="new -0.5 -0.5 49 49" xml:space="preserve">
<path fill="#D48303" d="M0,0h48v48H0V0z"/>
<path fill="#FFFFFF" d="M14,12c-1.34,0-2,0.577-2,2v3l-0.38,0.151c-0.896,0-1.62,0.766-1.62,1.712v10.281
	c0,0.946,0.725,1.712,1.62,1.712L12,31v3c0,1.416,0.653,2,2,2h22c1.34,0,2-0.577,2-2V14c0-1.416-0.653-2-2-2H14l0.915,0.007L14,12z
	 M15.51,22.945c-0.007,0.354-0.041,0.622-0.096,0.81c-0.055,0.18-0.13,1.119-0.226,1.213c-0.095,0.094-0.198,0.159-0.307,0.188
	c-0.11,0.029-0.26,0.043-0.452,0.043h-1.968v1.98h-0.937v-6.336h2.892c0.267,0,0.472,0.051,0.608,0.144
	c0.137,0.102,0.24,0.21,0.301,0.326c0.062,0.115,0.103,0.245,0.13,0.39c0.027,0.144,0.041,0.325,0.048,0.556
	C15.51,22.483,15.51,22.714,15.51,22.945L15.51,22.945L15.51,22.945z M25.996,25.72v-1.712 M25.996,22.288v-1.712 M25.996,18.857
	C25.996,17.91,24.895,17,24,17H14l0.102-2.427C14.102,14.103,14.549,14,15,14h20c0.444,0,1,0.523,1,1v18l0.373,0.436L36,33l0,0
	c0,0.469-0.549,1-1,1H15c-0.444,0-1-0.523-1-1v-2l10.376-0.137c0.896,0,1.62-0.765,1.62-1.712v-1.712 M16.296,27.186v-6.379h3.267
	c0.192,0,0.37,0.043,0.534,0.123c0.164,0.079,0.287,0.18,0.369,0.303c0.082,0.123,0.15,0.289,0.212,0.513
	c0.061,0.217,0.089,0.405,0.089,0.556v3.179c0,0.282-0.028,0.542-0.083,0.773c-0.054,0.231-0.116,0.405-0.198,0.52
	c-0.075,0.116-0.177,0.217-0.307,0.289c-0.123,0.08-0.328,0.116-0.602,0.116h-3.281V27.186L16.296,27.186L16.296,27.186z
	 M24.998,23.697v1.054H22.53v2.399h-0.929v-6.329h3.541v1.041H22.53v1.827h2.468V23.697L24.998,23.697L24.998,23.697z
	 M19.625,22.071c-0.068-0.116-0.192-0.173-0.356-0.173h-2.05v4.204h2.05c0.13,0,0.24-0.043,0.315-0.13
	c0.075-0.086,0.123-0.159,0.143-0.216c0.021-0.058,0.035-0.224,0.035-0.492v-2.312c0-0.231-0.007-0.404-0.014-0.527
	C19.734,22.302,19.7,22.187,19.625,22.071L19.625,22.071L19.625,22.071z M14.539,22.086c-0.062-0.109-0.178-0.167-0.328-0.167h-1.75
	v2.211h1.75c0.164,0,0.28-0.05,0.348-0.159c0.069-0.101,0.096-1.098,0.089-1.372C14.641,22.367,14.607,22.201,14.539,22.086
	L14.539,22.086L14.539,22.086z"/>
</svg>
