<?xml version="1.0" encoding="utf-8"?>
<!-- Generator: Adobe Illustrator 17.0.0, SVG Export Plug-In . SVG Version: 6.00 Build 0)  -->
<!DOCTYPE svg PUBLIC "-//W3C//DTD SVG 1.1//EN" "http://www.w3.org/Graphics/SVG/1.1/DTD/svg11.dtd">
<svg version="1.1" id="图层_1" xmlns="http://www.w3.org/2000/svg" xmlns:xlink="http://www.w3.org/1999/xlink" x="0px" y="0px"
	 width="49px" height="49px" viewBox="-0.5 -0.5 49 49" enable-background="new -0.5 -0.5 49 49" xml:space="preserve">
<path fill="#C11E07" d="M0,0h48v48H0V0z"/>
<path fill="#FFFFFF" d="M38.502,27.531c0,0-1.445-2.547-9.196-0.543c-2.395-1.213-4.816-3.04-6.245-5.755l-0.002,0.003
	c-0.016-0.033-0.033-0.069,0.002-0.003c1.308-3.113,2.051-6.096,1.222-7.887c0,0-1.768-4.978-3.345-0.43
	c0,0-1.259,4.139,1.027,8.609c-1.187,2.507-3.068,5.75-6.046,9.876c0,0-1.656,0.456-3.764,1.719c0,0-4.23,2.675-0.836,3.869
	c0,0,2.097,0.432,5.018-3.869c0,0,3.713-5.299,6.171-10.633c0.002,0.002,0.005,0.004,0.007,0.006
	c1.075,1.713,2.714,3.433,5.182,4.951c-2.401,0.735-5.31,1.855-8.85,3.526c0,0,5.858-1.501,10.905-2.402
	c0.006,0.001,0.012,0.001,0.017,0.001c1.535,0.738,3.316,1.406,5.388,1.972C35.157,30.541,40.648,31.142,38.502,27.531
	L38.502,27.531z M12.573,35.699c0,0-1.014-0.192,0-1.289c0,0,1.221-1.051,2.928-1.29C15.501,33.12,14.475,35.589,12.573,35.699
	L12.573,35.699z M22.574,20.165c-0.491-1.243-0.789-2.646-0.8-4.24c0,0,0.271-6.13,2.091-1.719
	C23.865,14.205,24.379,15.858,22.574,20.165C22.527,20.267,22.564,20.188,22.574,20.165L22.574,20.165z M36.411,29.251
	c0,0-1.851-0.236-4.232-1.056c-0.01-0.004-0.019-0.009-0.029-0.014C35.631,27.692,38.017,27.744,36.411,29.251L36.411,29.251z"/>
</svg>
